<svg width="65.201" height="91.8" version="1.1" viewBox="0 0 17.251 24.289" xmlns="http://www.w3.org/2000/svg" xmlns:cc="http://creativecommons.org/ns#" xmlns:dc="http://purl.org/dc/elements/1.1/" xmlns:rdf="http://www.w3.org/1999/02/22-rdf-syntax-ns#" xmlns:xlink="http://www.w3.org/1999/xlink">
 <defs>
  <clipPath id="clipPath4175">
   <use width="100%" height="100%" xlink:href="#g4171"/>
  </clipPath>
 </defs>
 <metadata>
  <rdf:RDF>
   <cc:Work rdf:about="">
    <dc:format>image/svg+xml</dc:format>
    <dc:type rdf:resource="http://purl.org/dc/dcmitype/StillImage"/>
    <dc:title/>
   </cc:Work>
  </rdf:RDF>
 </metadata>
 <g transform="translate(-74.529 -62.606)">
  <g clip-path="url(#clipPath4175)">
   <g id="g4171">
    <path d="m88.049 86.894h-2.2093l-0.93927-4.8419c-0.07938-0.47625 0.0045-0.89059 0.25135-1.2435 0.29104-0.37941 0.67469-0.56436 1.1509-0.55562 0.49398-0.0087 0.91281 0.17648 1.2568 0.55562 0.33523 0.35269 0.49848 0.76729 0.48974 1.2435v4.8419zm-9.7896-4.8419c-9e-3 -0.47625 0.15425-0.89059 0.48948-1.2435 0.34396-0.37941 0.76279-0.56436 1.2568-0.55562 0.47625-0.0087 0.8599 0.17648 1.1509 0.55562 0.24712 0.35269 0.33073 0.76729 0.25135 1.2435l-0.93927 4.8419h-2.2093z" fill="#6fc4a9" stroke-width=".26458"/>
    <path d="m77.466 70.437c0-1.5698 0.55562-2.9104 1.6669-4.0217s2.4519-1.6669 4.0217-1.6669 2.9104 0.55563 4.0214 1.6669c1.1112 1.1112 1.6671 2.4519 1.6671 4.0217v10.689c0 0.9615-0.55589 1.7814-1.6671 2.4606-1.111 0.67019-2.4519 1.0054-4.0214 1.0054-1.57 0-2.9104-0.33523-4.0217-1.0054-1.1112-0.67918-1.6669-1.4994-1.6669-2.4606z" fill="#6fc4a9" stroke-width=".26458"/>
    <path d="m79.874 72.541c0.26458-0.25585 0.58208-0.38365 0.9525-0.38365 0.35295 0 0.65696 0.12779 0.91281 0.38365 0.26458 0.26458 0.39688 0.57335 0.39688 0.92604 0 0.35269-0.13229 0.65246-0.39688 0.89958-0.25585 0.26458-0.55986 0.39688-0.91281 0.39688-0.37015 0-0.68792-0.13229-0.9525-0.39688-0.24712-0.24712-0.37042-0.54663-0.37042-0.89958s0.1233-0.66146 0.37042-0.92604zm5.6356-0.38365c0.35269 0 0.65696 0.12779 0.91281 0.38365 0.26458 0.26458 0.39688 0.57335 0.39688 0.92604 0 0.35269-0.13229 0.65246-0.39688 0.89958-0.25585 0.26458-0.56012 0.39688-0.91281 0.39688-0.37015 0-0.68792-0.13229-0.9525-0.39688-0.24712-0.24712-0.37042-0.54663-0.37042-0.89958s0.12356-0.66146 0.37042-0.92604c0.26458-0.25585 0.58208-0.38365 0.9525-0.38365zm-0.66146 3.2015c0.06165 0.01746 0.11483 0.06165 0.15901 0.13229v0.21167c-0.10583 0.23812-0.27808 0.45429-0.51594 0.64823-0.37042 0.29104-0.81598 0.43656-1.3361 0.43656-0.52917 0-0.97896-0.14552-1.3496-0.43656-0.26458-0.19394-0.43206-0.41884-0.50244-0.67469-0.01773-0.07064-9e-3 -0.13679 0.02646-0.19844 0.02646-0.07064 0.07488-0.11483 0.14552-0.13229l0.22516 0.02646 0.11853 0.14552c0.05292 0.15875 0.15901 0.29977 0.3175 0.42333 0.27331 0.21167 0.61278 0.3175 1.0189 0.3175 0.38788 0 0.72284-0.10583 1.0054-0.3175l0.34396-0.43656c0.01746-0.07064 0.06165-0.11906 0.13229-0.14552 0.07038-0.03519 0.14076-0.03519 0.2114 0z" fill="#347e67" stroke-width=".26458"/>
    <path d="m74.833 81.126c-0.05292-2.2135 0.96546-3.7306 3.0559-4.5508l0.07938-0.02646v2.4342c-1.2348-0.03545-1.8389 0.67019-1.8124 2.1167 0 0.18521-0.06165 0.34396-0.18521 0.47625-0.12356 0.13229-0.27781 0.19844-0.46302 0.19844-0.18521 0-0.34396-0.06165-0.47625-0.18521-0.12356-0.12356-0.18971-0.27781-0.19844-0.46302zm16.444 0.46302c-0.13229 0.12356-0.29104 0.18521-0.47625 0.18521-0.18521 0-0.33946-0.06615-0.46302-0.19844-0.12356-0.13229-0.18521-0.29104-0.18521-0.47625 0.02672-1.4465-0.57758-2.1521-1.8124-2.1167v-2.4342l0.07937 0.02646c2.0902 0.82021 3.1089 2.3371 3.0559 4.5508-9e-3 0.18521-0.07514 0.33946-0.19844 0.46302z" fill="#6fc4a9" stroke-width=".26458"/>
    <path d="m83.155 63.929c2.0108 0 3.7349 0.71438 5.1726 2.1431 1.4198 1.42 2.1299 3.1353 2.1299 5.1461 0 2.0196-0.71014 3.7439-2.1299 5.1726-1.4377 1.42-3.1618 2.1299-5.1726 2.1299-2.0111 0-3.7264-0.71014-5.1461-2.1299-1.4377-1.4288-2.1564-3.153-2.1564-5.1726 0-2.0108 0.71887-3.7261 2.1564-5.1461 1.4198-1.4288 3.1353-2.1431 5.1461-2.1431zm1.27 2.7914c-0.49398 0.48498-0.74083 1.0716-0.74083 1.7595 0 0.68792 0.24686 1.2742 0.74083 1.7595 0.48498 0.48498 1.0716 0.7276 1.7592 0.7276 0.68818 0 1.2745-0.24262 1.7595-0.7276 0.48498-0.48498 0.7276-1.0716 0.7276-1.7595 0-0.68792-0.24262-1.2742-0.7276-1.7595-0.48498-0.49398-1.0716-0.74083-1.7595-0.74083-0.68765 0-1.2742 0.24686-1.7592 0.74083z" enable-background="new    " fill="#fff" opacity=".2" stroke-width=".26458"/>
    <path d="m88.327 66.072c-1.4377-1.4288-3.1618-2.1431-5.1726-2.1431-2.0111 0-3.7264 0.71438-5.1461 2.1431-1.4377 1.42-2.1564 3.1353-2.1564 5.1461 0 2.0196 0.71887 3.7439 2.1564 5.1726 1.4198 1.42 3.1353 2.1299 5.1461 2.1299 2.0108 0 3.7349-0.71014 5.1726-2.1299 1.4198-1.4288 2.1299-3.153 2.1299-5.1726 0-2.0108-0.71014-3.7261-2.1299-5.1461zm-13.798 5.1461c0-2.3812 0.84667-4.4098 2.5403-6.0854 1.6756-1.6846 3.7042-2.5268 6.0854-2.5268s4.4183 0.84243 6.1119 2.5268c1.6756 1.6756 2.5135 3.7042 2.5135 6.0854 0 2.39-0.83794 4.4273-2.5135 6.1119-1.6933 1.6756-3.7306 2.5135-6.1119 2.5135s-4.4098-0.83794-6.0854-2.5135c-1.6936-1.6846-2.5403-3.7219-2.5403-6.1119z" fill="#fff" stroke-width=".26458"/>
    <path d="m83.684 68.479c0-0.68792 0.24686-1.2742 0.74083-1.7595 0.48498-0.49398 1.0716-0.74083 1.7592-0.74083 0.68818 0 1.2745 0.24712 1.7595 0.74083 0.48498 0.48498 0.7276 1.0716 0.7276 1.7595 0 0.68792-0.24262 1.2742-0.7276 1.7595-0.48498 0.48524-1.0713 0.7276-1.7592 0.7276-0.68792 0-1.2742-0.24262-1.7592-0.7276-0.49424-0.48525-0.7411-1.0716-0.7411-1.7595z" enable-background="new    " fill="#fff" opacity=".302" stroke-width=".26458"/>
    <path d="m87.507 80.954c-0.14975 0.15002-0.33073 0.2249-0.5424 0.2249-0.21167 0-0.39238-0.07488-0.5424-0.2249-0.14975-0.14975-0.2249-0.33073-0.2249-0.5424 0-0.21167 0.07488-0.39238 0.2249-0.5424 0.14976-0.14976 0.33073-0.2249 0.5424-0.2249 0.21167 0 0.39238 0.07488 0.5424 0.2249 0.15002 0.15002 0.22516 0.33073 0.22516 0.5424-2.64e-4 0.21167-0.07514 0.39238-0.22516 0.5424zm-0.91281 1.614c-0.10583 0.10583-0.23389 0.15875-0.38365 0.15875-0.15002 0-0.27781-0.05292-0.38365-0.15875-0.10583-0.10583-0.15875-0.23363-0.15875-0.38365 0-0.14975 0.05265-0.27781 0.15875-0.38365 0.1061-0.10583 0.23363-0.15875 0.38365-0.15875 0.14975 0 0.27781 0.05292 0.38365 0.15875 0.10557 0.10583 0.15875 0.23363 0.15875 0.38365 0 0.15002-0.05292 0.27781-0.15875 0.38365zm-2.7252-1.1377c0.29131 0 0.5379 0.10134 0.7411 0.30427 0.20294 0.20294 0.30401 0.44979 0.30401 0.74083 0 0.29104-0.10134 0.53816-0.30401 0.74083-0.2032 0.20294-0.44979 0.30427-0.7411 0.30427-0.29104 0-0.5379-0.10134-0.74083-0.30427-0.20294-0.20294-0.30427-0.44979-0.30427-0.74083 0-0.29104 0.10134-0.5379 0.30401-0.74083s0.45006-0.30427 0.7411-0.30427z" enable-background="new    " fill="#8bcfba" opacity=".502" stroke-width=".26458"/>
   </g>
  </g>
 </g>
</svg>
